<svg width="120" height="32" viewBox="0 0 120 32" fill="none" xmlns="http://www.w3.org/2000/svg">
  <rect width="120" height="32" rx="16" fill="url(#paint0_linear_1_1)"/>
  <path d="M20.4 21.6V10.4H24.9C27.9 10.4 29.9 12.2 29.9 15C29.9 17.8 27.9 19.6 24.9 19.6H23V21.6H20.4ZM24.7 17.4C26.1 17.4 26.9 16.6 26.9 15C26.9 13.4 26.1 12.6 24.7 12.6H23V17.4H24.7Z" fill="#E6F0F5"/>
  <path d="M33.5 21.7C31.1 21.7 29.3 19.9 29.3 17.1C29.3 14.3 31.1 12.5 33.5 12.5C35.9 12.5 37.7 14.3 37.7 17.1C37.7 19.9 35.9 21.7 33.5 21.7ZM33.5 19.5C34.7 19.5 35.5 18.5 35.5 17.1C35.5 15.7 34.7 14.7 33.5 14.7C32.3 14.7 31.5 15.7 31.5 17.1C31.5 18.5 32.3 19.5 33.5 19.5Z" fill="#E6F0F5"/>
  <path d="M40.7 21.7C38.3 21.7 36.5 19.9 36.5 17.1C36.5 14.3 38.3 12.5 40.7 12.5C43.1 12.5 44.9 14.3 44.9 17.1C44.9 19.9 43.1 21.7 40.7 21.7ZM40.7 19.5C41.9 19.5 42.7 18.5 42.7 17.1C42.7 15.7 41.9 14.7 40.7 14.7C39.5 14.7 38.7 15.7 38.7 17.1C38.7 18.5 39.5 19.5 40.7 19.5Z" fill="#E6F0F5"/>
  <path d="M47.9 21.6V10.4H50.5V21.6H47.9Z" fill="#E6F0F5"/>
  <defs>
    <linearGradient id="paint0_linear_1_1" x1="0" y1="16" x2="120" y2="16" gradientUnits="userSpaceOnUse">
      <stop stop-color="#00B887"/>
      <stop offset="1" stop-color="#1A9BFF"/>
    </linearGradient>
  </defs>
</svg>
